<svg xmlns="http://www.w3.org/2000/svg" viewBox="0 0 100 100" width="100" height="100"><path d="M80.00,50.00 L82.18,52.02 L84.15,54.31 L85.78,56.83 L87.01,59.50 L87.76,62.27 L87.99,65.04 L87.66,67.72 L86.78,70.22 L85.38,72.45 L83.50,74.34 L81.22,75.83 L78.61,76.87 L75.77,77.45 L72.81,77.57 L69.81,77.27 L66.88,76.60 L64.09,75.63 L61.50,74.44 L59.16,73.14 L57.09,71.82 L55.29,70.58 L53.72,69.52 L52.36,68.69 L51.14,68.18 L50.00,68.00 L48.86,68.18 L47.64,68.69 L46.28,69.52 L44.71,70.58 L42.91,71.82 L40.84,73.14 L38.50,74.44 L35.91,75.63 L33.12,76.60 L30.19,77.27 L27.19,77.57 L24.23,77.45 L21.39,76.87 L18.78,75.83 L16.50,74.34 L14.62,72.45 L13.22,70.22 L12.34,67.72 L12.01,65.04 L12.24,62.27 L12.99,59.50 L14.22,56.83 L15.85,54.31 L17.82,52.02 L20.00,50.00 L22.30,48.26 L24.62,46.79 L26.85,45.58 L28.90,44.58 L30.70,43.73 L32.20,42.95 L33.37,42.18 L34.21,41.32 L34.72,40.30 L34.96,39.07 L34.99,37.58 L34.87,35.79 L34.70,33.71 L34.56,31.34 L34.55,28.73 L34.73,25.94 L35.18,23.05 L35.96,20.15 L37.08,17.36 L38.55,14.76 L40.36,12.47 L42.48,10.58 L44.84,9.17 L47.38,8.30 L50.00,8.00 L52.62,8.30 L55.16,9.17 L57.52,10.58 L59.64,12.47 L61.45,14.76 L62.92,17.36 L64.04,20.15 L64.82,23.05 L65.27,25.94 L65.45,28.73 L65.44,31.34 L65.30,33.71 L65.13,35.79 L65.01,37.58 L65.04,39.07 L65.28,40.30 L65.79,41.32 L66.63,42.18 L67.80,42.95 L69.30,43.73 L71.10,44.58 L73.15,45.58 L75.38,46.79 L77.70,48.26 L80.00,50.00 Z" fill="none" stroke="hsla(200, 80%, 50%, 1)" stroke-width="2"/><path d="M77.03,63.02 L78.12,65.79 L78.89,68.70 L79.28,71.68 L79.23,74.62 L78.70,77.44 L77.70,80.03 L76.24,82.31 L74.37,84.18 L72.14,85.58 L69.62,86.47 L66.92,86.81 L64.12,86.62 L61.31,85.91 L58.59,84.74 L56.02,83.17 L53.67,81.29 L51.57,79.20 L49.76,77.01 L48.21,74.83 L46.92,72.74 L45.83,70.84 L44.89,69.20 L44.02,67.87 L43.14,66.87 L42.19,66.22 L41.08,65.88 L39.76,65.82 L38.18,65.97 L36.31,66.25 L34.14,66.59 L31.70,66.88 L29.03,67.03 L26.19,66.98 L23.25,66.64 L20.32,65.97 L17.49,64.94 L14.87,63.54 L12.57,61.79 L10.67,59.72 L9.25,57.39 L8.38,54.88 L8.08,52.26 L8.38,49.63 L9.25,47.07 L10.65,44.67 L12.53,42.50 L14.80,40.62 L17.36,39.07 L20.12,37.86 L22.97,36.98 L25.80,36.41 L28.52,36.10 L31.06,35.98 L33.34,35.96 L35.33,35.98 L37.02,35.93 L38.41,35.74 L39.54,35.32 L40.44,34.64 L41.19,33.63 L41.86,32.30 L42.53,30.64 L43.28,28.68 L44.19,26.49 L45.31,24.13 L46.68,21.70 L48.34,19.29 L50.30,17.02 L52.52,14.98 L54.97,13.28 L57.60,12.01 L60.33,11.22 L63.07,10.97 L65.73,11.29 L68.22,12.16 L70.46,13.56 L72.36,15.45 L73.88,17.75 L74.97,20.37 L75.61,23.22 L75.81,26.20 L75.60,29.20 L75.04,32.15 L74.20,34.95 L73.15,37.54 L72.01,39.89 L70.85,41.96 L69.79,43.76 L68.91,45.32 L68.29,46.68 L67.97,47.89 L68.00,49.03 L68.38,50.16 L69.09,51.37 L70.11,52.72 L71.36,54.27 L72.78,56.07 L74.26,58.12 L75.71,60.45 L77.03,63.02 Z" fill="none" stroke="hsla(210, 80%, 50%, 1)" stroke-width="2"/><path d="M68.70,73.45 L68.48,76.43 L67.92,79.39 L66.97,82.23 L65.65,84.86 L63.95,87.18 L61.93,89.08 L59.63,90.49 L57.12,91.37 L54.50,91.66 L51.86,91.37 L49.27,90.51 L46.83,89.12 L44.61,87.26 L42.67,85.02 L41.03,82.49 L39.73,79.78 L38.75,77.00 L38.06,74.23 L37.62,71.59 L37.36,69.15 L37.20,66.97 L37.06,65.08 L36.86,63.50 L36.50,62.23 L35.93,61.22 L35.08,60.44 L33.91,59.81 L32.42,59.26 L30.61,58.70 L28.52,58.06 L26.19,57.27 L23.72,56.25 L21.18,54.96 L18.68,53.39 L16.33,51.51 L14.22,49.36 L12.47,46.96 L11.16,44.38 L10.34,41.69 L10.08,38.98 L10.38,36.34 L11.26,33.85 L12.66,31.60 L14.56,29.68 L16.86,28.12 L19.49,26.99 L22.35,26.28 L25.34,25.99 L28.35,26.10 L31.30,26.55 L34.09,27.26 L36.68,28.16 L39.02,29.14 L41.08,30.12 L42.87,31.00 L44.41,31.69 L45.75,32.12 L46.94,32.24 L48.05,32.01 L49.17,31.43 L50.35,30.52 L51.67,29.31 L53.20,27.88 L54.96,26.30 L56.99,24.66 L59.29,23.06 L61.83,21.61 L64.58,20.41 L67.46,19.54 L70.41,19.08 L73.33,19.07 L76.13,19.54 L78.71,20.51 L80.97,21.95 L82.84,23.81 L84.24,26.05 L85.14,28.57 L85.51,31.30 L85.35,34.13 L84.69,36.98 L83.58,39.75 L82.09,42.37 L80.31,44.78 L78.33,46.94 L76.27,48.82 L74.22,50.43 L72.28,51.80 L70.54,52.97 L69.07,53.99 L67.92,54.94 L67.11,55.90 L66.64,56.93 L66.48,58.12 L66.61,59.52 L66.93,61.18 L67.39,63.12 L67.89,65.35 L68.33,67.84 L68.63,70.57 L68.70,73.45 Z" fill="none" stroke="hsla(220, 80%, 50%, 1)" stroke-width="2"/><path d="M56.68,79.25 L55.19,81.83 L53.39,84.25 L51.31,86.41 L48.97,88.20 L46.44,89.55 L43.79,90.38 L41.10,90.66 L38.47,90.36 L35.98,89.49 L33.72,88.08 L31.77,86.18 L30.17,83.87 L28.98,81.23 L28.20,78.37 L27.82,75.38 L27.82,72.38 L28.15,69.44 L28.73,66.65 L29.48,64.08 L30.30,61.77 L31.11,59.73 L31.80,57.97 L32.30,56.46 L32.53,55.16 L32.45,54.01 L32.02,52.93 L31.25,51.86 L30.14,50.71 L28.76,49.43 L27.15,47.94 L25.40,46.22 L23.61,44.23 L21.88,41.97 L20.31,39.46 L19.00,36.75 L18.05,33.90 L17.51,30.98 L17.44,28.09 L17.88,25.31 L18.81,22.75 L20.24,20.50 L22.10,18.64 L24.34,17.23 L26.88,16.31 L29.63,15.91 L32.50,16.03 L35.38,16.63 L38.20,17.67 L40.86,19.07 L43.32,20.75 L45.54,22.61 L47.48,24.54 L49.15,26.45 L50.59,28.22 L51.82,29.79 L52.91,31.08 L53.93,32.05 L54.95,32.67 L56.05,32.95 L57.31,32.91 L58.77,32.60 L60.48,32.09 L62.48,31.46 L64.76,30.80 L67.30,30.20 L70.06,29.76 L72.98,29.56 L75.97,29.67 L78.95,30.14 L81.81,31.00 L84.45,32.25 L86.76,33.90 L88.66,35.88 L90.08,38.16 L90.95,40.65 L91.24,43.28 L90.96,45.94 L90.11,48.56 L88.73,51.04 L86.90,53.32 L84.70,55.34 L82.22,57.05 L79.57,58.45 L76.85,59.53 L74.18,60.33 L71.63,60.90 L69.29,61.29 L67.22,61.59 L65.45,61.87 L64.00,62.23 L62.85,62.74 L61.98,63.47 L61.33,64.47 L60.83,65.78 L60.41,67.42 L59.98,69.37 L59.46,71.59 L58.77,74.03 L57.86,76.61 L56.68,79.25 Z" fill="none" stroke="hsla(230, 80%, 50%, 1)" stroke-width="2"/><path d="M43.32,79.25 L40.86,80.93 L38.20,82.33 L35.38,83.37 L32.50,83.97 L29.63,84.09 L26.88,83.69 L24.34,82.77 L22.10,81.36 L20.24,79.50 L18.81,77.25 L17.88,74.69 L17.44,71.91 L17.51,69.02 L18.05,66.10 L19.00,63.25 L20.31,60.54 L21.88,58.03 L23.61,55.77 L25.40,53.78 L27.15,52.06 L28.76,50.57 L30.14,49.29 L31.25,48.14 L32.02,47.07 L32.45,45.99 L32.53,44.84 L32.30,43.54 L31.80,42.03 L31.11,40.27 L30.30,38.23 L29.48,35.92 L28.73,33.35 L28.15,30.56 L27.82,27.62 L27.82,24.62 L28.20,21.63 L28.98,18.77 L30.17,16.13 L31.77,13.82 L33.72,11.92 L35.98,10.51 L38.47,9.64 L41.10,9.34 L43.79,9.62 L46.44,10.45 L48.97,11.80 L51.31,13.59 L53.39,15.75 L55.19,18.17 L56.68,20.75 L57.86,23.39 L58.77,25.97 L59.46,28.41 L59.98,30.63 L60.41,32.58 L60.83,34.22 L61.33,35.53 L61.98,36.53 L62.85,37.26 L64.00,37.77 L65.45,38.13 L67.22,38.41 L69.29,38.71 L71.63,39.10 L74.18,39.67 L76.85,40.47 L79.57,41.55 L82.22,42.95 L84.70,44.66 L86.90,46.68 L88.73,48.96 L90.11,51.44 L90.96,54.06 L91.24,56.72 L90.95,59.35 L90.08,61.84 L88.66,64.12 L86.76,66.10 L84.45,67.75 L81.81,69.00 L78.95,69.86 L75.97,70.33 L72.98,70.44 L70.06,70.24 L67.30,69.80 L64.76,69.20 L62.48,68.54 L60.48,67.91 L58.77,67.40 L57.31,67.09 L56.05,67.05 L54.95,67.33 L53.93,67.95 L52.91,68.92 L51.82,70.21 L50.59,71.78 L49.15,73.55 L47.48,75.46 L45.54,77.39 L43.32,79.25 Z" fill="none" stroke="hsla(240, 80%, 50%, 1)" stroke-width="2"/><path d="M31.30,73.45 L28.35,73.90 L25.34,74.01 L22.35,73.72 L19.49,73.01 L16.86,71.88 L14.56,70.32 L12.66,68.40 L11.26,66.15 L10.38,63.66 L10.08,61.02 L10.34,58.31 L11.16,55.62 L12.47,53.04 L14.22,50.64 L16.33,48.49 L18.68,46.61 L21.18,45.04 L23.72,43.75 L26.19,42.73 L28.52,41.94 L30.61,41.30 L32.42,40.74 L33.91,40.19 L35.08,39.56 L35.93,38.78 L36.50,37.77 L36.86,36.50 L37.06,34.92 L37.20,33.03 L37.36,30.85 L37.62,28.41 L38.06,25.77 L38.75,23.00 L39.73,20.22 L41.03,17.51 L42.67,14.98 L44.61,12.74 L46.83,10.88 L49.27,9.49 L51.86,8.63 L54.50,8.34 L57.12,8.63 L59.63,9.51 L61.93,10.92 L63.95,12.82 L65.65,15.14 L66.97,17.77 L67.92,20.61 L68.48,23.57 L68.70,26.55 L68.63,29.43 L68.33,32.16 L67.89,34.65 L67.39,36.88 L66.93,38.82 L66.61,40.48 L66.48,41.88 L66.64,43.07 L67.11,44.10 L67.92,45.06 L69.07,46.01 L70.54,47.03 L72.28,48.20 L74.22,49.57 L76.27,51.18 L78.33,53.06 L80.31,55.22 L82.09,57.63 L83.58,60.25 L84.69,63.02 L85.35,65.87 L85.51,68.70 L85.14,71.43 L84.24,73.95 L82.84,76.19 L80.97,78.05 L78.71,79.49 L76.13,80.46 L73.33,80.93 L70.41,80.92 L67.46,80.46 L64.58,79.59 L61.83,78.39 L59.29,76.94 L56.99,75.34 L54.96,73.70 L53.20,72.12 L51.67,70.69 L50.35,69.48 L49.17,68.57 L48.05,67.99 L46.94,67.76 L45.75,67.88 L44.41,68.31 L42.87,69.00 L41.08,69.88 L39.02,70.86 L36.68,71.84 L34.09,72.74 L31.30,73.45 Z" fill="none" stroke="hsla(250, 80%, 50%, 1)" stroke-width="2"/><path d="M22.97,63.02 L20.12,62.14 L17.36,60.93 L14.80,59.38 L12.53,57.50 L10.65,55.33 L9.25,52.93 L8.38,50.37 L8.08,47.74 L8.38,45.12 L9.25,42.61 L10.67,40.28 L12.57,38.21 L14.87,36.46 L17.49,35.06 L20.32,34.03 L23.25,33.36 L26.19,33.02 L29.03,32.97 L31.70,33.12 L34.14,33.41 L36.31,33.75 L38.18,34.03 L39.76,34.18 L41.08,34.12 L42.19,33.78 L43.14,33.13 L44.02,32.13 L44.89,30.80 L45.83,29.16 L46.92,27.26 L48.21,25.17 L49.76,22.99 L51.57,20.80 L53.67,18.71 L56.02,16.83 L58.59,15.26 L61.31,14.09 L64.12,13.38 L66.92,13.19 L69.62,13.53 L72.14,14.42 L74.37,15.82 L76.24,17.69 L77.70,19.97 L78.70,22.56 L79.23,25.38 L79.28,28.32 L78.89,31.30 L78.12,34.21 L77.03,36.98 L75.71,39.55 L74.26,41.88 L72.78,43.93 L71.36,45.73 L70.11,47.28 L69.09,48.63 L68.38,49.84 L68.00,50.97 L67.97,52.11 L68.29,53.32 L68.91,54.68 L69.79,56.24 L70.85,58.04 L72.01,60.11 L73.15,62.46 L74.20,65.05 L75.04,67.85 L75.60,70.80 L75.81,73.80 L75.61,76.78 L74.97,79.63 L73.88,82.25 L72.36,84.55 L70.46,86.44 L68.22,87.84 L65.73,88.71 L63.07,89.03 L60.33,88.78 L57.60,87.99 L54.97,86.72 L52.52,85.02 L50.30,82.98 L48.34,80.71 L46.68,78.30 L45.31,75.87 L44.19,73.51 L43.28,71.32 L42.53,69.36 L41.86,67.70 L41.19,66.37 L40.44,65.36 L39.54,64.68 L38.41,64.26 L37.02,64.07 L35.33,64.02 L33.34,64.04 L31.06,64.02 L28.52,63.90 L25.80,63.59 L22.97,63.02 Z" fill="none" stroke="hsla(260, 80%, 50%, 1)" stroke-width="2"/></svg>